<?xml version="1.0" encoding="UTF-8"?>
<svg version="1.1" xmlns="http://www.w3.org/2000/svg" width="512" height="512">
<path d="M0 0 C3.41198661 0.8106493 5.16346661 2.81757028 7.203125 5.5234375 C9.3734106 9.06089745 11.2870378 12.71847291 13.203125 16.3984375 C14.34972913 18.55826596 15.49821811 20.71709468 16.6484375 22.875 C17.52677246 24.52677246 17.52677246 24.52677246 18.42285156 26.21191406 C22.74383672 34.24946791 27.29116724 42.16188642 31.81835938 50.08447266 C33.05197069 52.25721191 34.26534437 54.439346 35.46875 56.62890625 C36.08234375 57.72847656 36.6959375 58.82804687 37.328125 59.9609375 C37.82570313 60.86714844 38.32328125 61.77335937 38.8359375 62.70703125 C39.28710938 63.30644531 39.73828125 63.90585937 40.203125 64.5234375 C43.66558755 64.5234375 44.49794822 63.89695324 47.30053711 61.98828125 C48.53343727 61.15611084 48.53343727 61.15611084 49.79124451 60.30712891 C50.67868851 59.69788574 51.56613251 59.08864258 52.48046875 58.4609375 C53.40219376 57.83622559 54.32391876 57.21151367 55.27357483 56.56787109 C58.23371861 54.55953506 61.18725675 52.54172074 64.140625 50.5234375 C66.09656644 49.19336495 68.05294189 47.86393041 70.00976562 46.53515625 C73.75555627 43.99093241 77.49930617 41.44374948 81.24169922 38.89453125 C86.86971085 35.06498396 92.52654574 31.28065372 98.203125 27.5234375 C99.688125 26.5334375 99.688125 26.5334375 101.203125 25.5234375 C107.32764502 24.85530804 107.32764502 24.85530804 110.578125 27.3359375 C113.15338392 30.8026322 113.39553206 33.87616117 113.68383789 38.07373047 C113.76384537 39.21276825 113.84385284 40.35180603 113.92628479 41.52536011 C114.00861862 42.75964752 114.09095245 43.99393494 114.17578125 45.265625 C114.26315048 46.54011505 114.35051971 47.8146051 114.4405365 49.12771606 C114.62548309 51.83269604 114.8075134 54.53785292 114.98754883 57.24316406 C115.21609645 60.67359436 115.45204776 64.10346567 115.69033146 67.53323174 C115.91890478 70.83957793 116.14074814 74.14636677 116.36328125 77.453125 C116.44763931 78.6671701 116.53199738 79.88121521 116.61891174 81.13204956 C117.13162823 88.94107467 117.30147893 96.69832738 117.203125 104.5234375 C118.0482515 104.38448563 118.89337799 104.24553375 119.76411438 104.10237122 C134.56100562 101.67171408 149.36685308 99.2884877 164.19342041 97.04525757 C165.64047064 96.82507874 167.08706329 96.60186792 168.53314209 96.37539673 C191.52587304 92.78372439 191.52587304 92.78372439 195.96557617 95.66870117 C197.74745292 98.33923139 198.03554093 100.31736592 198.203125 103.5234375 C197.32958984 106.80200195 197.32958984 106.80200195 195.9140625 110.38671875 C195.65905472 111.04420609 195.40404694 111.70169342 195.14131165 112.37910461 C194.30050461 114.53699169 193.43955432 116.68620948 192.578125 118.8359375 C191.98936229 120.33527314 191.4018964 121.8351186 190.81567383 123.33544922 C189.58903714 126.46705448 188.35367922 129.59500496 187.11083984 132.72021484 C185.20625703 137.50953876 183.32211229 142.30672781 181.44140625 147.10546875 C178.3772224 154.91752344 175.29576722 162.72260511 172.203125 170.5234375 C175.33348863 172.61034659 177.83598844 173.44159482 181.43115234 174.50708008 C182.05754105 174.69441208 182.68392975 174.88174408 183.32929993 175.07475281 C184.68733179 175.48054365 186.04600022 175.88420886 187.40522385 176.28598976 C189.559465 176.92401136 191.7111409 177.57005366 193.86221313 178.21867371 C199.97765501 180.06209949 206.09516507 181.8982598 212.21972656 183.71118164 C215.96860619 184.82151324 219.71251452 185.94739391 223.45372391 187.08328819 C224.8768599 187.51210344 226.30176692 187.93508766 227.72843552 188.35199928 C229.72912643 188.93723734 231.72289201 189.54212715 233.71630859 190.15161133 C234.85087494 190.48977371 235.98544128 190.8279361 237.15438843 191.17634583 C240.70911835 192.74701189 242.70183409 194.57117565 245.203125 197.5234375 C245.953125 200.3359375 245.953125 200.3359375 245.203125 203.5234375 C240.3060515 211.296859 231.92694064 217.49741917 225.20703125 223.67675781 C221.40579334 227.17975044 217.63261536 230.71298827 213.86303711 234.25 C210.57995607 237.32569665 207.27290976 240.36901386 203.92578125 243.375 C203.2296875 244.00664062 202.53359375 244.63828125 201.81640625 245.2890625 C200.47675501 246.50367962 199.12937164 247.70983753 197.7734375 248.90625 C197.17402344 249.4528125 196.57460938 249.999375 195.95703125 250.5625 C195.42408447 251.03896973 194.8911377 251.51543945 194.34204102 252.00634766 C192.80287795 253.74041517 192.80287795 253.74041517 193.203125 257.5234375 C195.10975246 259.58845251 196.96622731 261.38004075 199.078125 263.2109375 C199.67165771 263.74130615 200.26519043 264.2716748 200.87670898 264.81811523 C202.0824781 265.89410966 203.29234807 266.9655269 204.50634766 268.03222656 C206.77850955 270.02911359 209.02141858 272.05773137 211.265625 274.0859375 C212.06355469 274.80136719 212.86148437 275.51679688 213.68359375 276.25390625 C218.03003268 280.16907062 222.33271451 284.13189423 226.64013672 288.08984375 C228.24316643 289.56016403 229.8496392 291.0266383 231.45703125 292.4921875 C231.99021973 292.97896973 232.5234082 293.46575195 233.07275391 293.96728516 C234.55182042 295.3173767 236.03174239 296.6665309 237.51171875 298.015625 C245.03821272 305.02870066 245.03821272 305.02870066 246.203125 308.5234375 C246.203125 312.19619983 245.36772086 313.59148222 243.203125 316.5234375 C240.9954071 317.72686768 240.9954071 317.72686768 238.3894043 318.55175781 C237.40684662 318.87358032 236.42428894 319.19540283 235.41195679 319.52697754 C234.3530423 319.85580933 233.29412781 320.18464111 232.203125 320.5234375 C229.9814704 321.25601419 227.75987442 321.98876868 225.53833008 322.72167969 C223.10045663 323.50668619 220.66186768 324.28947336 218.22265625 325.0703125 C216.91552446 325.49039722 215.60845259 325.91066844 214.30143738 326.33111572 C210.90076897 327.42451878 207.49930558 328.51542706 204.09765625 329.60577393 C200.61083356 330.72392453 197.12478818 331.8444932 193.63867188 332.96484375 C186.8275713 335.15337612 180.01562584 337.3392674 173.203125 339.5234375 C177.96358779 352.55349749 183.17357863 365.38388553 188.453125 378.2109375 C189.67661948 381.1903106 190.8994465 384.16995708 192.12225342 387.14961243 C192.87628647 388.98626007 193.6308559 390.82268762 194.38604736 392.65885925 C195.04764243 394.26772217 195.70841462 395.87692386 196.36813354 397.48655701 C197.05212979 399.15509935 197.73924681 400.82236207 198.42724609 402.48925781 C199.78222614 406.04171021 199.5643593 408.7304773 199.203125 412.5234375 C197.828125 415.0234375 197.828125 415.0234375 195.203125 416.5234375 C186.76806525 417.48005067 178.13083752 415.73524258 169.7890625 414.5546875 C168.32369976 414.35231653 166.85825418 414.15054454 165.39273071 413.94934082 C161.56810493 413.42263757 157.74464622 412.88789812 153.92138672 412.35137939 C150.00686741 411.80353838 146.09128057 411.26344014 142.17578125 410.72265625 C134.51717395 409.6637522 126.85978496 408.5963416 119.203125 407.5234375 C119.20992279 408.24018143 119.21672058 408.95692535 119.22372437 409.69538879 C119.26396266 417.28666954 119.02138522 424.83057449 118.6171875 432.41015625 C118.55534271 433.59261429 118.49349792 434.77507233 118.42977905 435.99336243 C118.29867095 438.47328772 118.16580581 440.95312071 118.03125 443.43286133 C117.82813587 447.21073525 117.63655402 450.98908694 117.4453125 454.76757812 C117.31581094 457.19014205 117.18562602 459.61266957 117.0546875 462.03515625 C116.99938873 463.15411789 116.94408997 464.27307953 116.88711548 465.4259491 C115.95951491 481.86462481 115.95951491 481.86462481 111.953125 485.6484375 C108.10904242 486.87155468 105.10967808 486.46683138 101.46044922 484.66113281 C99.52539762 483.51956163 97.64371039 482.31897954 95.765625 481.0859375 C95.0653418 480.63710205 94.36505859 480.1882666 93.64355469 479.72583008 C87.80586213 475.9673067 82.03388793 472.10799084 76.26953125 468.23828125 C71.5016206 465.04493994 66.69863691 461.90597071 61.890625 458.7734375 C61.07883789 458.24258545 60.26705078 457.7117334 59.43066406 457.16479492 C53.76718391 453.4810014 48.01756039 449.96367713 42.203125 446.5234375 C41.94515137 447.20994385 41.68717773 447.8964502 41.42138672 448.60375977 C40.03662179 451.92247796 38.40580258 455.07152008 36.7109375 458.23828125 C36.36865616 458.88250534 36.02637482 459.52672943 35.67372131 460.19047546 C34.56128953 462.28211677 33.44494248 464.37163504 32.328125 466.4609375 C31.55894086 467.90345119 30.7898169 469.34599697 30.02075195 470.78857422 C25.50274072 479.25545735 20.96763366 487.71328753 16.390625 496.1484375 C15.91834473 497.02234131 15.44606445 497.89624512 14.95947266 498.79663086 C8.32178723 510.96410638 8.32178723 510.96410638 5.203125 512.5234375 C0.23002308 513.36633613 0.23002308 513.36633613 -2.796875 512.5234375 C-8.34840425 507.18803947 -12.12675592 499.90142315 -15.921875 493.2734375 C-17.05023673 491.33356013 -18.18049786 489.39478654 -19.3125 487.45703125 C-19.88548828 486.47589355 -20.45847656 485.49475586 -21.04882812 484.48388672 C-28.02409931 472.6707389 -35.36901453 461.05687904 -42.796875 449.5234375 C-48.43260219 452.57643408 -53.48778754 456.11656316 -58.609375 459.9609375 C-60.29761596 461.21690044 -61.98643211 462.47209054 -63.67578125 463.7265625 C-64.5280127 464.36013672 -65.38024414 464.99371094 -66.25830078 465.64648438 C-70.9003954 469.0787236 -75.58578283 472.45101731 -80.28173828 475.80908203 C-83.90757094 478.40790301 -87.49121362 481.04097383 -91.01171875 483.78125 C-91.68235352 484.29598877 -92.35298828 484.81072754 -93.04394531 485.34106445 C-94.29501303 486.30486511 -95.53617981 487.28172496 -96.76464844 488.27416992 C-99.67333689 490.49828911 -101.77957076 491.52053787 -105.41015625 492.12890625 C-109.76753982 491.34990457 -111.00147063 489.90054941 -113.796875 486.5234375 C-114.66389465 483.55303955 -114.66389465 483.55303955 -115.00708008 480.22363281 C-115.14684769 478.97173157 -115.2866153 477.71983032 -115.43061829 476.42999268 C-115.55981452 475.07057286 -115.68839515 473.71109442 -115.81640625 472.3515625 C-115.9644116 470.94518399 -116.11423742 469.53899598 -116.26579285 468.13299561 C-116.57874183 465.18881081 -116.87751878 462.24367423 -117.16479492 459.296875 C-117.53088872 455.54162478 -117.91976892 451.78922916 -118.31787586 448.03725052 C-118.69955305 444.43442322 -119.07147391 440.83061228 -119.44140625 437.2265625 C-119.54630843 436.21090084 -119.54630843 436.21090084 -119.65332985 435.17472076 C-120.3938157 427.92659796 -120.96927022 420.81073755 -120.796875 413.5234375 C-121.64576797 413.68630249 -122.49466095 413.84916748 -123.36927795 414.01696777 C-131.38618164 415.55387133 -139.40423886 417.08457665 -147.42363834 418.60840607 C-151.54602265 419.39195712 -155.66792863 420.1778613 -159.78881836 420.96923828 C-163.76888026 421.73347936 -167.75009664 422.49141469 -171.73217583 423.24507141 C-173.24796388 423.53308344 -174.76332924 423.82332978 -176.27824593 424.1158905 C-178.40714419 424.52662002 -180.53743403 424.92923586 -182.66821289 425.33007812 C-183.8784462 425.56102173 -185.0886795 425.79196533 -186.33558655 426.02990723 C-195.62692317 427.35471906 -195.62692317 427.35471906 -199.171875 424.8359375 C-201.01430242 422.21402155 -201.45066106 420.69468877 -201.796875 417.5234375 C-201.19873047 414.7890625 -201.19873047 414.7890625 -200.1640625 411.7734375 C-199.77597412 410.62464111 -199.38788574 409.47584473 -198.98803711 408.29223633 C-198.33653687 406.42668091 -198.33653687 406.42668091 -197.671875 404.5234375 C-197.22509735 403.217347 -196.77923506 401.91094306 -196.33422852 400.60424805 C-194.84103649 396.23721774 -193.32003854 391.8800873 -191.796875 387.5234375 C-191.21757684 385.86280477 -190.63831339 384.20215994 -190.05908203 382.54150391 C-186.93755706 373.60027167 -183.79891183 364.66517457 -180.63673401 355.73823547 C-179.66954842 353.0061373 -178.7134093 350.2730404 -177.796875 347.5234375 C-178.82162933 347.39009003 -179.84638367 347.25674255 -180.90219116 347.11935425 C-184.39068987 346.58558697 -187.69883588 345.87348819 -191.11181641 344.98876953 C-192.3164151 344.67819611 -193.52101379 344.36762268 -194.76211548 344.04763794 C-196.05763946 343.70916066 -197.35307815 343.37035679 -198.6484375 343.03125 C-199.99406106 342.68103186 -201.33971382 342.33092592 -202.68539429 341.98092651 C-205.49509853 341.24901457 -208.30394396 340.51390472 -211.11230469 339.77685547 C-214.7023362 338.83521454 -218.29509458 337.90446758 -221.88866615 336.97644234 C-224.66453721 336.25778049 -227.43848805 335.53191787 -230.21195602 334.80404282 C-231.53570742 334.45784265 -232.8601282 334.1141911 -234.18523026 333.77319717 C-236.03902193 333.29530587 -237.88994172 332.80631625 -239.74072266 332.31689453 C-240.79216461 332.04233429 -241.84360657 331.76777405 -242.9269104 331.4848938 C-247.43571575 329.97441548 -250.14023707 328.50839439 -252.796875 324.5234375 C-252.94141811 320.83758818 -252.56886817 318.46032242 -250.1875 315.5703125 C-248.88455064 314.2875639 -247.55490094 313.03114857 -246.1953125 311.80859375 C-244.19903033 309.90659853 -242.45452754 307.99900012 -240.66821289 305.90795898 C-236.78081265 301.44197143 -232.65713977 297.25632793 -228.45703125 293.0859375 C-227.69007431 292.32039551 -226.92311737 291.55485352 -226.13291931 290.76611328 C-223.71076619 288.34950553 -221.28513888 285.93642024 -218.859375 283.5234375 C-217.20484607 281.87393064 -215.55054698 280.22419321 -213.89648438 278.57421875 C-209.86593298 274.55462379 -205.83253228 270.53790581 -201.796875 266.5234375 C-203.71286869 262.24736826 -206.68505625 259.77615706 -210.234375 256.8359375 C-210.86472656 256.30484375 -211.49507812 255.77375 -212.14453125 255.2265625 C-216.71118817 251.39020092 -221.33167039 247.61980605 -225.9609375 243.859375 C-229.83440207 240.66883531 -233.64029574 237.4026259 -237.43847656 234.12304688 C-240.43730342 231.53562932 -243.45090688 228.97180896 -246.5078125 226.453125 C-247.39944092 225.71425049 -247.39944092 225.71425049 -248.30908203 224.96044922 C-249.43822443 224.02674142 -250.57179585 223.09835484 -251.71044922 222.17626953 C-254.47861518 219.87868301 -256.62412106 217.97694605 -257.796875 214.5234375 C-257.734375 211.5234375 -257.734375 211.5234375 -256.796875 208.5234375 C-253.28748621 205.22346409 -249.90234089 203.57749383 -245.38598633 201.98974609 C-244.76424026 201.76804245 -244.1424942 201.54633881 -243.50190735 201.31791687 C-241.46397569 200.59354498 -239.42152946 199.88289668 -237.37890625 199.171875 C-235.95558551 198.66773944 -234.53263207 198.16256576 -233.11003113 197.65640259 C-229.37696364 196.33045353 -225.64019153 195.01531267 -221.90216064 193.70343018 C-215.90814555 191.59894288 -209.91830421 189.4827712 -203.93158531 187.35762405 C-201.84052993 186.6179088 -199.74694098 185.88573158 -197.6530304 185.15414429 C-196.37511406 184.70249108 -195.09729206 184.25057084 -193.81958008 183.79833984 C-192.7021492 183.40625336 -191.58471832 183.01416687 -190.4334259 182.61019897 C-187.69712435 181.67987303 -187.69712435 181.67987303 -185.796875 179.5234375 C-186.32007324 178.39663574 -186.84327148 177.26983398 -187.38232422 176.10888672 C-188.12209203 174.51530956 -188.86183612 172.92172139 -189.6015625 171.328125 C-189.99680618 170.47674454 -190.39204987 169.62536407 -190.79927063 168.7481842 C-192.96910149 164.07277436 -195.13609216 159.39607598 -197.2980957 154.71704102 C-198.16614751 152.83869016 -199.03422999 150.96035347 -199.90234375 149.08203125 C-200.32959244 148.15747635 -200.75684113 147.23292145 -201.19703674 146.28034973 C-203.53193325 141.23438507 -205.89075339 136.20158116 -208.28515625 131.18359375 C-208.75518066 130.18666504 -209.22520508 129.18973633 -209.70947266 128.16259766 C-210.52897069 126.42598999 -211.35978149 124.69465158 -212.20458984 122.97021484 C-214.57374339 117.90300841 -215.53854699 114.13047774 -214.796875 108.5234375 C-213.16116333 106.31347656 -213.16116333 106.31347656 -210.796875 104.5234375 C-207.86862183 104.08666992 -207.86862183 104.08666992 -204.47998047 104.19140625 C-203.23214783 104.2279834 -201.98431519 104.26456055 -200.69866943 104.30224609 C-194.40253052 104.65917208 -188.14039632 105.19468643 -181.8671875 105.8359375 C-180.49719998 105.97105305 -179.12715256 106.10556248 -177.75704956 106.23950195 C-174.2023256 106.5886079 -170.64845961 106.94577553 -167.09472656 107.30480957 C-163.44776134 107.67175984 -159.80002056 108.03082979 -156.15234375 108.390625 C-149.03308979 109.093987 -141.91471493 109.8058951 -134.796875 110.5234375 C-134.80232834 109.53391586 -134.80778168 108.54439423 -134.81340027 107.52488708 C-134.86661483 97.41233391 -134.85877065 87.30061204 -134.80932617 77.18804932 C-134.80100716 75.40774087 -134.79401424 73.62742574 -134.78833008 71.84710693 C-134.77061851 66.59694439 -134.7258883 61.34825098 -134.64328003 56.09869385 C-134.62075262 54.42915096 -134.60679841 52.75946947 -134.60159302 51.08978271 C-134.59240618 48.74505412 -134.55197364 46.40280463 -134.50390625 44.05859375 C-134.50783386 43.36738937 -134.51176147 42.676185 -134.51580811 41.96403503 C-134.40543085 38.33610448 -133.80560881 36.5357543 -131.69018555 33.55249023 C-128.01888206 30.97783803 -126.20360743 30.89325476 -121.796875 31.5234375 C-118.89208984 32.81420898 -118.89208984 32.81420898 -116.0078125 34.64453125 C-114.36921265 35.6646228 -114.36921265 35.6646228 -112.69750977 36.70532227 C-112.12364532 37.07247345 -111.54978088 37.43962463 -110.95852661 37.81790161 C-108.51385832 39.38191307 -106.04860694 40.91203022 -103.5839386 42.44425964 C-102.29242787 43.24742675 -101.00198414 44.05231195 -99.71257019 44.85884094 C-92.6808669 49.24863636 -85.52667531 53.42258444 -78.359375 57.5859375 C-69.42582963 62.7768866 -60.57216788 68.06999349 -51.796875 73.5234375 C-48.7855988 70.87937587 -46.93552695 67.63926208 -44.9453125 64.21484375 C-44.38793144 63.26907471 -44.38793144 63.26907471 -43.81929016 62.30419922 C-43.01778752 60.94343275 -42.21825953 59.58150165 -41.42050171 58.21853638 C-39.29929728 54.59561357 -37.16236662 50.98197809 -35.02734375 47.3671875 C-34.59241104 46.62996964 -34.15747833 45.89275177 -33.70936584 45.13319397 C-29.70609015 38.35351495 -25.65336748 31.60455004 -21.56890869 24.87350464 C-20.85543748 23.69753593 -20.1428078 22.52105618 -19.43109131 21.34402466 C-6.82158743 0.49469527 -6.82158743 0.49469527 0 0 Z " fill="#EE853F" transform="translate(261.796875,-0.5234375)"/>
<path d="M0 0 C0.82886719 0.73992187 1.65773438 1.47984375 2.51171875 2.2421875 C3.35089844 2.96148437 4.19007813 3.68078125 5.0546875 4.421875 C18.84154761 16.43461203 28.93520344 30.21584196 37.51171875 46.2421875 C38.42824219 47.95341797 38.42824219 47.95341797 39.36328125 49.69921875 C54.71956482 80.37796149 56.7892896 117.26064786 46.6640625 149.890625 C41.14282136 165.9490145 34.14335135 180.89083493 23.51171875 194.2421875 C23.1058252 194.75491211 22.69993164 195.26763672 22.28173828 195.79589844 C0.79182277 222.72906315 -28.55682028 240.70423351 -62.48828125 247.2421875 C-63.87841431 247.52122925 -63.87841431 247.52122925 -65.29663086 247.8059082 C-75.35423219 249.61220657 -85.20963545 249.32410588 -95.37426758 248.97485352 C-97.62200173 248.90243787 -99.86863094 248.86122041 -102.1171875 248.82421875 C-102.79946915 248.79213821 -103.48175079 248.76005768 -104.18470764 248.727005 C-106.36943341 248.64955687 -106.36943341 248.64955687 -109.48828125 249.2421875 C-111.72893611 251.69753423 -111.72893611 251.69753423 -113.48828125 254.2421875 C-116.9012192 254.12449998 -119.42862752 253.77201436 -122.48828125 252.2421875 C-123.16767299 250.24647427 -123.83389684 248.24623977 -124.48828125 246.2421875 C-126.74910242 243.98136633 -128.7474138 243.40229274 -131.74365234 242.44189453 C-146.89156201 237.58466594 -161.0769397 230.22607423 -173.48828125 220.2421875 C-174.40867188 219.52289063 -175.3290625 218.80359375 -176.27734375 218.0625 C-205.51360442 194.78624839 -223.27293718 161.12576375 -228.16308594 124.25927734 C-230.97607667 98.16097445 -226.4117211 71.61100476 -214.48828125 48.2421875 C-214.19050781 47.64164551 -213.89273438 47.04110352 -213.5859375 46.42236328 C-205.17448721 29.49039306 -193.62996067 14.96310573 -179.16796875 2.765625 C-177.38125181 1.32985735 -177.38125181 1.32985735 -176.48828125 -0.7578125 C-176.57000543 -2.21757548 -176.67736207 -3.6759822 -176.80078125 -5.1328125 C-176.8359375 -7.5546875 -176.8359375 -7.5546875 -176.48828125 -9.7578125 C-173.73828125 -12.3828125 -173.73828125 -12.3828125 -170.48828125 -13.7578125 C-168.18856887 -13.57134933 -167.11370441 -13.38323566 -165.48828125 -11.7578125 C-160.17828973 -11.16781344 -156.64151184 -12.89161284 -152.11328125 -15.3828125 C-104.49884549 -40.32661158 -41.40615628 -35.77392874 0 0 Z " fill="#FEDA2C" transform="translate(343.48828125,146.7578125)"/>
<path d="M0 0 C3.41198661 0.8106493 5.16346661 2.81757028 7.203125 5.5234375 C9.3734106 9.06089745 11.2870378 12.71847291 13.203125 16.3984375 C14.34972913 18.55826596 15.49821811 20.71709468 16.6484375 22.875 C17.52677246 24.52677246 17.52677246 24.52677246 18.42285156 26.21191406 C22.74383672 34.24946791 27.29116724 42.16188642 31.81835938 50.08447266 C33.05197069 52.25721191 34.26534437 54.439346 35.46875 56.62890625 C36.08234375 57.72847656 36.6959375 58.82804687 37.328125 59.9609375 C37.82570313 60.86714844 38.32328125 61.77335937 38.8359375 62.70703125 C39.28710938 63.30644531 39.73828125 63.90585937 40.203125 64.5234375 C43.66558755 64.5234375 44.49794822 63.89695324 47.30053711 61.98828125 C48.53343727 61.15611084 48.53343727 61.15611084 49.79124451 60.30712891 C50.67868851 59.69788574 51.56613251 59.08864258 52.48046875 58.4609375 C53.40219376 57.83622559 54.32391876 57.21151367 55.27357483 56.56787109 C58.23371861 54.55953506 61.18725675 52.54172074 64.140625 50.5234375 C66.09656644 49.19336495 68.05294189 47.86393041 70.00976562 46.53515625 C73.75555627 43.99093241 77.49930617 41.44374948 81.24169922 38.89453125 C86.86971085 35.06498396 92.52654574 31.28065372 98.203125 27.5234375 C99.688125 26.5334375 99.688125 26.5334375 101.203125 25.5234375 C107.32764502 24.85530804 107.32764502 24.85530804 110.578125 27.3359375 C113.15338392 30.8026322 113.39553206 33.87616117 113.68383789 38.07373047 C113.76384537 39.21276825 113.84385284 40.35180603 113.92628479 41.52536011 C114.00861862 42.75964752 114.09095245 43.99393494 114.17578125 45.265625 C114.26315048 46.54011505 114.35051971 47.8146051 114.4405365 49.12771606 C114.62548309 51.83269604 114.8075134 54.53785292 114.98754883 57.24316406 C115.21609645 60.67359436 115.45204776 64.10346567 115.69033146 67.53323174 C115.91890478 70.83957793 116.14074814 74.14636677 116.36328125 77.453125 C116.44763931 78.6671701 116.53199738 79.88121521 116.61891174 81.13204956 C117.13162823 88.94107467 117.30147893 96.69832738 117.203125 104.5234375 C118.0482515 104.38448563 118.89337799 104.24553375 119.76411438 104.10237122 C134.56100562 101.67171408 149.36685308 99.2884877 164.19342041 97.04525757 C165.64047064 96.82507874 167.08706329 96.60186792 168.53314209 96.37539673 C191.52587304 92.78372439 191.52587304 92.78372439 195.96557617 95.66870117 C197.74745292 98.33923139 198.03554093 100.31736592 198.203125 103.5234375 C197.32958984 106.80200195 197.32958984 106.80200195 195.9140625 110.38671875 C195.65905472 111.04420609 195.40404694 111.70169342 195.14131165 112.37910461 C194.30050461 114.53699169 193.43955432 116.68620948 192.578125 118.8359375 C191.98936229 120.33527314 191.4018964 121.8351186 190.81567383 123.33544922 C189.58903714 126.46705448 188.35367922 129.59500496 187.11083984 132.72021484 C185.20625703 137.50953876 183.32211229 142.30672781 181.44140625 147.10546875 C178.3772224 154.91752344 175.29576722 162.72260511 172.203125 170.5234375 C175.33348863 172.61034659 177.83598844 173.44159482 181.43115234 174.50708008 C182.05754105 174.69441208 182.68392975 174.88174408 183.32929993 175.07475281 C184.68733179 175.48054365 186.04600022 175.88420886 187.40522385 176.28598976 C189.559465 176.92401136 191.7111409 177.57005366 193.86221313 178.21867371 C199.97765501 180.06209949 206.09516507 181.8982598 212.21972656 183.71118164 C215.96860619 184.82151324 219.71251452 185.94739391 223.45372391 187.08328819 C224.8768599 187.51210344 226.30176692 187.93508766 227.72843552 188.35199928 C229.72912643 188.93723734 231.72289201 189.54212715 233.71630859 190.15161133 C234.85087494 190.48977371 235.98544128 190.8279361 237.15438843 191.17634583 C240.70911835 192.74701189 242.70183409 194.57117565 245.203125 197.5234375 C245.953125 200.3359375 245.953125 200.3359375 245.203125 203.5234375 C240.3060515 211.296859 231.92694064 217.49741917 225.20703125 223.67675781 C221.40579334 227.17975044 217.63261536 230.71298827 213.86303711 234.25 C210.57995607 237.32569665 207.27290976 240.36901386 203.92578125 243.375 C203.2296875 244.00664062 202.53359375 244.63828125 201.81640625 245.2890625 C200.47675501 246.50367962 199.12937164 247.70983753 197.7734375 248.90625 C197.17402344 249.4528125 196.57460938 249.999375 195.95703125 250.5625 C195.42408447 251.03896973 194.8911377 251.51543945 194.34204102 252.00634766 C192.80287795 253.74041517 192.80287795 253.74041517 193.203125 257.5234375 C195.10975246 259.58845251 196.96622731 261.38004075 199.078125 263.2109375 C199.67165771 263.74130615 200.26519043 264.2716748 200.87670898 264.81811523 C202.0824781 265.89410966 203.29234807 266.9655269 204.50634766 268.03222656 C206.77850955 270.02911359 209.02141858 272.05773137 211.265625 274.0859375 C212.06355469 274.80136719 212.86148437 275.51679688 213.68359375 276.25390625 C218.03003268 280.16907062 222.33271451 284.13189423 226.64013672 288.08984375 C228.24316643 289.56016403 229.8496392 291.0266383 231.45703125 292.4921875 C231.99021973 292.97896973 232.5234082 293.46575195 233.07275391 293.96728516 C234.55182042 295.3173767 236.03174239 296.6665309 237.51171875 298.015625 C245.03821272 305.02870066 245.03821272 305.02870066 246.203125 308.5234375 C246.203125 312.19619983 245.36772086 313.59148222 243.203125 316.5234375 C240.9954071 317.72686768 240.9954071 317.72686768 238.3894043 318.55175781 C237.40684662 318.87358032 236.42428894 319.19540283 235.41195679 319.52697754 C234.3530423 319.85580933 233.29412781 320.18464111 232.203125 320.5234375 C229.9814704 321.25601419 227.75987442 321.98876868 225.53833008 322.72167969 C223.10045663 323.50668619 220.66186768 324.28947336 218.22265625 325.0703125 C216.91552446 325.49039722 215.60845259 325.91066844 214.30143738 326.33111572 C210.90076897 327.42451878 207.49930558 328.51542706 204.09765625 329.60577393 C200.61083356 330.72392453 197.12478818 331.8444932 193.63867188 332.96484375 C186.8275713 335.15337612 180.01562584 337.3392674 173.203125 339.5234375 C177.96358779 352.55349749 183.17357863 365.38388553 188.453125 378.2109375 C189.67661948 381.1903106 190.8994465 384.16995708 192.12225342 387.14961243 C192.87628647 388.98626007 193.6308559 390.82268762 194.38604736 392.65885925 C195.04764243 394.26772217 195.70841462 395.87692386 196.36813354 397.48655701 C197.05212979 399.15509935 197.73924681 400.82236207 198.42724609 402.48925781 C199.78222614 406.04171021 199.5643593 408.7304773 199.203125 412.5234375 C197.828125 415.0234375 197.828125 415.0234375 195.203125 416.5234375 C186.76806525 417.48005067 178.13083752 415.73524258 169.7890625 414.5546875 C168.32369976 414.35231653 166.85825418 414.15054454 165.39273071 413.94934082 C161.56810493 413.42263757 157.74464622 412.88789812 153.92138672 412.35137939 C150.00686741 411.80353838 146.09128057 411.26344014 142.17578125 410.72265625 C134.51717395 409.6637522 126.85978496 408.5963416 119.203125 407.5234375 C119.20992279 408.24018143 119.21672058 408.95692535 119.22372437 409.69538879 C119.26396266 417.28666954 119.02138522 424.83057449 118.6171875 432.41015625 C118.55534271 433.59261429 118.49349792 434.77507233 118.42977905 435.99336243 C118.29867095 438.47328772 118.16580581 440.95312071 118.03125 443.43286133 C117.82813587 447.21073525 117.63655402 450.98908694 117.4453125 454.76757812 C117.31581094 457.19014205 117.18562602 459.61266957 117.0546875 462.03515625 C116.99938873 463.15411789 116.94408997 464.27307953 116.88711548 465.4259491 C115.95951491 481.86462481 115.95951491 481.86462481 111.953125 485.6484375 C108.10904242 486.87155468 105.10967808 486.46683138 101.46044922 484.66113281 C99.52539762 483.51956163 97.64371039 482.31897954 95.765625 481.0859375 C95.0653418 480.63710205 94.36505859 480.1882666 93.64355469 479.72583008 C87.80586213 475.9673067 82.03388793 472.10799084 76.26953125 468.23828125 C71.5016206 465.04493994 66.69863691 461.90597071 61.890625 458.7734375 C61.07883789 458.24258545 60.26705078 457.7117334 59.43066406 457.16479492 C53.76718391 453.4810014 48.01756039 449.96367713 42.203125 446.5234375 C41.94515137 447.20994385 41.68717773 447.8964502 41.42138672 448.60375977 C40.03662179 451.92247796 38.40580258 455.07152008 36.7109375 458.23828125 C36.36865616 458.88250534 36.02637482 459.52672943 35.67372131 460.19047546 C34.56128953 462.28211677 33.44494248 464.37163504 32.328125 466.4609375 C31.55894086 467.90345119 30.7898169 469.34599697 30.02075195 470.78857422 C25.50274072 479.25545735 20.96763366 487.71328753 16.390625 496.1484375 C15.91834473 497.02234131 15.44606445 497.89624512 14.95947266 498.79663086 C8.32178723 510.96410638 8.32178723 510.96410638 5.203125 512.5234375 C0.23002308 513.36633613 0.23002308 513.36633613 -2.796875 512.5234375 C-8.34840425 507.18803947 -12.12675592 499.90142315 -15.921875 493.2734375 C-17.05023673 491.33356013 -18.18049786 489.39478654 -19.3125 487.45703125 C-19.88548828 486.47589355 -20.45847656 485.49475586 -21.04882812 484.48388672 C-28.02409931 472.6707389 -35.36901453 461.05687904 -42.796875 449.5234375 C-48.43260219 452.57643408 -53.48778754 456.11656316 -58.609375 459.9609375 C-60.29761596 461.21690044 -61.98643211 462.47209054 -63.67578125 463.7265625 C-64.5280127 464.36013672 -65.38024414 464.99371094 -66.25830078 465.64648438 C-70.9003954 469.0787236 -75.58578283 472.45101731 -80.28173828 475.80908203 C-83.90757094 478.40790301 -87.49121362 481.04097383 -91.01171875 483.78125 C-91.68235352 484.29598877 -92.35298828 484.81072754 -93.04394531 485.34106445 C-94.29501303 486.30486511 -95.53617981 487.28172496 -96.76464844 488.27416992 C-99.67333689 490.49828911 -101.77957076 491.52053787 -105.41015625 492.12890625 C-109.76753982 491.34990457 -111.00147063 489.90054941 -113.796875 486.5234375 C-114.66389465 483.55303955 -114.66389465 483.55303955 -115.00708008 480.22363281 C-115.14684769 478.97173157 -115.2866153 477.71983032 -115.43061829 476.42999268 C-115.55981452 475.07057286 -115.68839515 473.71109442 -115.81640625 472.3515625 C-115.9644116 470.94518399 -116.11423742 469.53899598 -116.26579285 468.13299561 C-116.57874183 465.18881081 -116.87751878 462.24367423 -117.16479492 459.296875 C-117.53088872 455.54162478 -117.91976892 451.78922916 -118.31787586 448.03725052 C-118.69955305 444.43442322 -119.07147391 440.83061228 -119.44140625 437.2265625 C-119.54630843 436.21090084 -119.54630843 436.21090084 -119.65332985 435.17472076 C-120.3938157 427.92659796 -120.96927022 420.81073755 -120.796875 413.5234375 C-121.64576797 413.68630249 -122.49466095 413.84916748 -123.36927795 414.01696777 C-131.38618164 415.55387133 -139.40423886 417.08457665 -147.42363834 418.60840607 C-151.54602265 419.39195712 -155.66792863 420.1778613 -159.78881836 420.96923828 C-163.76888026 421.73347936 -167.75009664 422.49141469 -171.73217583 423.24507141 C-173.24796388 423.53308344 -174.76332924 423.82332978 -176.27824593 424.1158905 C-178.40714419 424.52662002 -180.53743403 424.92923586 -182.66821289 425.33007812 C-183.8784462 425.56102173 -185.0886795 425.79196533 -186.33558655 426.02990723 C-195.62692317 427.35471906 -195.62692317 427.35471906 -199.171875 424.8359375 C-201.01430242 422.21402155 -201.45066106 420.69468877 -201.796875 417.5234375 C-201.19873047 414.7890625 -201.19873047 414.7890625 -200.1640625 411.7734375 C-199.77597412 410.62464111 -199.38788574 409.47584473 -198.98803711 408.29223633 C-198.33653687 406.42668091 -198.33653687 406.42668091 -197.671875 404.5234375 C-197.22509735 403.217347 -196.77923506 401.91094306 -196.33422852 400.60424805 C-194.84103649 396.23721774 -193.32003854 391.8800873 -191.796875 387.5234375 C-191.21757684 385.86280477 -190.63831339 384.20215994 -190.05908203 382.54150391 C-186.93755706 373.60027167 -183.79891183 364.66517457 -180.63673401 355.73823547 C-179.66954842 353.0061373 -178.7134093 350.2730404 -177.796875 347.5234375 C-178.82162933 347.39009003 -179.84638367 347.25674255 -180.90219116 347.11935425 C-184.39068987 346.58558697 -187.69883588 345.87348819 -191.11181641 344.98876953 C-192.3164151 344.67819611 -193.52101379 344.36762268 -194.76211548 344.04763794 C-196.05763946 343.70916066 -197.35307815 343.37035679 -198.6484375 343.03125 C-199.99406106 342.68103186 -201.33971382 342.33092592 -202.68539429 341.98092651 C-205.49509853 341.24901457 -208.30394396 340.51390472 -211.11230469 339.77685547 C-214.7023362 338.83521454 -218.29509458 337.90446758 -221.88866615 336.97644234 C-224.66453721 336.25778049 -227.43848805 335.53191787 -230.21195602 334.80404282 C-231.53570742 334.45784265 -232.8601282 334.1141911 -234.18523026 333.77319717 C-236.03902193 333.29530587 -237.88994172 332.80631625 -239.74072266 332.31689453 C-240.79216461 332.04233429 -241.84360657 331.76777405 -242.9269104 331.4848938 C-247.43571575 329.97441548 -250.14023707 328.50839439 -252.796875 324.5234375 C-252.94141811 320.83758818 -252.56886817 318.46032242 -250.1875 315.5703125 C-248.88455064 314.2875639 -247.55490094 313.03114857 -246.1953125 311.80859375 C-244.19903033 309.90659853 -242.45452754 307.99900012 -240.66821289 305.90795898 C-236.78081265 301.44197143 -232.65713977 297.25632793 -228.45703125 293.0859375 C-227.69007431 292.32039551 -226.92311737 291.55485352 -226.13291931 290.76611328 C-223.71076619 288.34950553 -221.28513888 285.93642024 -218.859375 283.5234375 C-217.20484607 281.87393064 -215.55054698 280.22419321 -213.89648438 278.57421875 C-209.86593298 274.55462379 -205.83253228 270.53790581 -201.796875 266.5234375 C-203.71286869 262.24736826 -206.68505625 259.77615706 -210.234375 256.8359375 C-210.86472656 256.30484375 -211.49507812 255.77375 -212.14453125 255.2265625 C-216.71118817 251.39020092 -221.33167039 247.61980605 -225.9609375 243.859375 C-229.83440207 240.66883531 -233.64029574 237.4026259 -237.43847656 234.12304688 C-240.43730342 231.53562932 -243.45090688 228.97180896 -246.5078125 226.453125 C-247.39944092 225.71425049 -247.39944092 225.71425049 -248.30908203 224.96044922 C-249.43822443 224.02674142 -250.57179585 223.09835484 -251.71044922 222.17626953 C-254.47861518 219.87868301 -256.62412106 217.97694605 -257.796875 214.5234375 C-257.734375 211.5234375 -257.734375 211.5234375 -256.796875 208.5234375 C-253.28748621 205.22346409 -249.90234089 203.57749383 -245.38598633 201.98974609 C-244.76424026 201.76804245 -244.1424942 201.54633881 -243.50190735 201.31791687 C-241.46397569 200.59354498 -239.42152946 199.88289668 -237.37890625 199.171875 C-235.95558551 198.66773944 -234.53263207 198.16256576 -233.11003113 197.65640259 C-229.37696364 196.33045353 -225.64019153 195.01531267 -221.90216064 193.70343018 C-215.90814555 191.59894288 -209.91830421 189.4827712 -203.93158531 187.35762405 C-201.84052993 186.6179088 -199.74694098 185.88573158 -197.6530304 185.15414429 C-196.37511406 184.70249108 -195.09729206 184.25057084 -193.81958008 183.79833984 C-192.7021492 183.40625336 -191.58471832 183.01416687 -190.4334259 182.61019897 C-187.69712435 181.67987303 -187.69712435 181.67987303 -185.796875 179.5234375 C-186.32007324 178.39663574 -186.84327148 177.26983398 -187.38232422 176.10888672 C-188.12209203 174.51530956 -188.86183612 172.92172139 -189.6015625 171.328125 C-189.99680618 170.47674454 -190.39204987 169.62536407 -190.79927063 168.7481842 C-192.96910149 164.07277436 -195.13609216 159.39607598 -197.2980957 154.71704102 C-198.16614751 152.83869016 -199.03422999 150.96035347 -199.90234375 149.08203125 C-200.32959244 148.15747635 -200.75684113 147.23292145 -201.19703674 146.28034973 C-203.53193325 141.23438507 -205.89075339 136.20158116 -208.28515625 131.18359375 C-208.75518066 130.18666504 -209.22520508 129.18973633 -209.70947266 128.16259766 C-210.52897069 126.42598999 -211.35978149 124.69465158 -212.20458984 122.97021484 C-214.57374339 117.90300841 -215.53854699 114.13047774 -214.796875 108.5234375 C-213.16116333 106.31347656 -213.16116333 106.31347656 -210.796875 104.5234375 C-207.86862183 104.08666992 -207.86862183 104.08666992 -204.47998047 104.19140625 C-203.23214783 104.2279834 -201.98431519 104.26456055 -200.69866943 104.30224609 C-194.40253052 104.65917208 -188.14039632 105.19468643 -181.8671875 105.8359375 C-180.49719998 105.97105305 -179.12715256 106.10556248 -177.75704956 106.23950195 C-174.2023256 106.5886079 -170.64845961 106.94577553 -167.09472656 107.30480957 C-163.44776134 107.67175984 -159.80002056 108.03082979 -156.15234375 108.390625 C-149.03308979 109.093987 -141.91471493 109.8058951 -134.796875 110.5234375 C-134.80232834 109.53391586 -134.80778168 108.54439423 -134.81340027 107.52488708 C-134.86661483 97.41233391 -134.85877065 87.30061204 -134.80932617 77.18804932 C-134.80100716 75.40774087 -134.79401424 73.62742574 -134.78833008 71.84710693 C-134.77061851 66.59694439 -134.7258883 61.34825098 -134.64328003 56.09869385 C-134.62075262 54.42915096 -134.60679841 52.75946947 -134.60159302 51.08978271 C-134.59240618 48.74505412 -134.55197364 46.40280463 -134.50390625 44.05859375 C-134.50783386 43.36738937 -134.51176147 42.676185 -134.51580811 41.96403503 C-134.40543085 38.33610448 -133.80560881 36.5357543 -131.69018555 33.55249023 C-128.01888206 30.97783803 -126.20360743 30.89325476 -121.796875 31.5234375 C-118.89208984 32.81420898 -118.89208984 32.81420898 -116.0078125 34.64453125 C-114.36921265 35.6646228 -114.36921265 35.6646228 -112.69750977 36.70532227 C-112.12364532 37.07247345 -111.54978088 37.43962463 -110.95852661 37.81790161 C-108.51385832 39.38191307 -106.04860694 40.91203022 -103.5839386 42.44425964 C-102.29242787 43.24742675 -101.00198414 44.05231195 -99.71257019 44.85884094 C-92.6808669 49.24863636 -85.52667531 53.42258444 -78.359375 57.5859375 C-69.42582963 62.7768866 -60.57216788 68.06999349 -51.796875 73.5234375 C-48.7855988 70.87937587 -46.93552695 67.63926208 -44.9453125 64.21484375 C-44.38793144 63.26907471 -44.38793144 63.26907471 -43.81929016 62.30419922 C-43.01778752 60.94343275 -42.21825953 59.58150165 -41.42050171 58.21853638 C-39.29929728 54.59561357 -37.16236662 50.98197809 -35.02734375 47.3671875 C-34.59241104 46.62996964 -34.15747833 45.89275177 -33.70936584 45.13319397 C-29.70609015 38.35351495 -25.65336748 31.60455004 -21.56890869 24.87350464 C-20.85543748 23.69753593 -20.1428078 22.52105618 -19.43109131 21.34402466 C-6.82158743 0.49469527 -6.82158743 0.49469527 0 0 Z M-2.796875 24.5234375 C-8.99802544 34.83646189 -15.16043761 45.17179547 -21.296875 55.5234375 C-22.49356069 57.54214332 -23.69037959 59.56076935 -24.88769531 61.57910156 C-25.67653145 62.90892786 -26.46494817 64.23900306 -27.25292969 65.56933594 C-29.25955386 68.95269477 -31.28014125 72.32661785 -33.32421875 75.6875 C-33.73377808 76.36288818 -34.1433374 77.03827637 -34.56530762 77.73413086 C-35.34180137 79.01294098 -36.12130829 80.28992844 -36.90441895 81.56469727 C-38.865194 84.79773438 -40.51333577 87.96438095 -41.796875 91.5234375 C-48.09392958 93.16789124 -51.35538742 92.64173865 -57.0546875 89.4375 C-59.3617356 88.02927142 -61.64487762 86.60277929 -63.921875 85.1484375 C-65.13824899 84.39568314 -66.35603516 83.64520613 -67.57519531 82.89697266 C-69.95176026 81.43438841 -72.32064015 79.96063396 -74.68261719 78.47460938 C-78.27195573 76.22578579 -81.90080208 74.05327405 -85.546875 71.8984375 C-89.94626861 69.25674554 -94.32789975 66.58779529 -98.703125 63.90625 C-99.74887695 63.2663916 -100.79462891 62.6265332 -101.87207031 61.96728516 C-103.95644709 60.69107723 -106.03918633 59.41219012 -108.12011719 58.13037109 C-109.07047852 57.54852051 -110.02083984 56.96666992 -111 56.3671875 C-111.85239258 55.84318359 -112.70478516 55.31917969 -113.58300781 54.77929688 C-115.85285611 53.39753532 -115.85285611 53.39753532 -118.796875 52.5234375 C-118.80052063 53.3767717 -118.80416626 54.2301059 -118.80792236 55.10929871 C-118.84581501 63.15770434 -118.90268204 71.20570527 -118.98077774 79.25382519 C-119.02025932 83.39131934 -119.05244427 87.52860045 -119.06787109 91.66625977 C-119.0830335 95.66061961 -119.11747077 99.65439381 -119.16518402 103.64849281 C-119.18000227 105.17103289 -119.18791628 106.69365659 -119.18875885 108.21626854 C-119.19112912 110.35208685 -119.2182088 112.4862874 -119.25097656 114.62182617 C-119.26430023 116.44383797 -119.26430023 116.44383797 -119.27789307 118.30265808 C-119.90420314 122.18951126 -120.90548825 123.87054436 -123.796875 126.5234375 C-126.19151306 127.0501709 -126.19151306 127.0501709 -128.83178711 126.90429688 C-130.29103104 126.83601685 -130.29103104 126.83601685 -131.77975464 126.76635742 C-132.77540436 126.68619385 -133.77105408 126.60603027 -134.796875 126.5234375 C-135.72122345 126.45294189 -136.6455719 126.38244629 -137.59793091 126.30981445 C-140.48344343 126.05578749 -143.35937728 125.74977695 -146.23828125 125.4296875 C-147.81076881 125.26321716 -147.81076881 125.26321716 -149.4150238 125.09338379 C-152.7304155 124.74216821 -156.04495225 124.38367456 -159.359375 124.0234375 C-163.73505376 123.54861692 -168.11141988 123.08096423 -172.48828125 122.6171875 C-173.47397598 122.5078186 -174.45967072 122.39844971 -175.47523499 122.2857666 C-181.60800689 121.63595552 -187.63085496 121.39097622 -193.796875 121.5234375 C-193.13948556 126.41787422 -191.12631484 130.49204715 -189.04296875 134.91015625 C-188.66382828 135.72603714 -188.28468781 136.54191803 -187.89405823 137.38252258 C-186.67924932 139.9943998 -185.4571763 142.60279385 -184.234375 145.2109375 C-181.46730599 151.13682801 -178.71159686 157.0678231 -175.96844482 163.00482178 C-174.78828785 165.54189797 -173.58830108 168.06897213 -172.38720703 170.59619141 C-171.63893154 172.20311689 -170.89134301 173.81036248 -170.14453125 175.41796875 C-169.79104111 176.14771408 -169.43755096 176.87745941 -169.073349 177.62931824 C-167.55661825 180.93720857 -166.7992912 183.15435687 -166.77514648 186.8425293 C-167.796875 189.5234375 -167.796875 189.5234375 -169.89160156 191.22216797 C-173.30628813 192.75160321 -176.75449714 194.10160537 -180.28125 195.34375 C-181.00650879 195.60403488 -181.73176758 195.86431976 -182.47900391 196.13249207 C-184.83321527 196.97611684 -187.18999236 197.81230817 -189.546875 198.6484375 C-191.16717698 199.22759199 -192.7872932 199.80726644 -194.40722656 200.38745117 C-197.65729037 201.55075298 -200.90829633 202.71135766 -204.16015625 203.86962891 C-210.62854823 206.17468668 -217.08742219 208.50596855 -223.546875 210.8359375 C-225.56241927 211.56142225 -227.57803508 212.28670828 -229.59375 213.01171875 C-230.82109863 213.45318237 -230.82109863 213.45318237 -232.07324219 213.90356445 C-232.92644043 214.21040161 -232.92644043 214.21040161 -233.796875 214.5234375 C-231.9711166 218.54967328 -229.36694055 220.84222432 -225.984375 223.5859375 C-224.80320435 224.56358336 -223.62221999 225.54145434 -222.44140625 226.51953125 C-221.83635254 227.01694824 -221.23129883 227.51436523 -220.60791016 228.02685547 C-218.31893872 229.91838889 -216.05692684 231.8403266 -213.79614258 233.76538086 C-209.33383085 237.56501951 -204.84129206 241.32204274 -200.296875 245.0234375 C-198.98783203 246.10431641 -198.98783203 246.10431641 -197.65234375 247.20703125 C-195.53164977 248.92737534 -193.39566531 250.59479195 -191.22265625 252.24609375 C-190.01791421 253.19230746 -188.81348235 254.13891625 -187.609375 255.0859375 C-187.031875 255.50875 -186.454375 255.9315625 -185.859375 256.3671875 C-183.67374958 258.1167514 -182.02349973 259.70841442 -181.26098633 262.45068359 C-180.98324073 266.44663637 -181.52267468 268.15453146 -183.95703125 271.4296875 C-184.91480469 272.285625 -185.87257812 273.1415625 -186.859375 274.0234375 C-187.79910156 274.879375 -188.73882812 275.7353125 -189.70703125 276.6171875 C-190.20875854 277.07343506 -190.71048584 277.52968262 -191.22741699 277.99975586 C-192.94467916 279.66693066 -194.48330211 281.4258054 -196.03710938 283.24609375 C-199.54869599 287.28961502 -203.24153549 291.09739555 -207.04296875 294.8671875 C-207.69894547 295.52174927 -208.35492218 296.17631104 -209.03077698 296.85070801 C-211.09627645 298.91067573 -213.16525095 300.96711116 -215.234375 303.0234375 C-216.64801934 304.432058 -218.06143286 305.84091017 -219.47460938 307.25 C-222.91270649 310.67715883 -226.35392156 314.10115769 -229.796875 317.5234375 C-226.41383098 319.77880018 -223.31988495 320.43891387 -219.421875 321.2734375 C-212.63767938 322.79149688 -205.96780058 324.56849335 -199.296875 326.5234375 C-192.7692914 328.43612973 -186.24861494 330.16940259 -179.609375 331.6484375 C-164.20897939 335.11133311 -164.20897939 335.11133311 -159.796875 339.5234375 C-160.09024825 346.08337399 -162.55130565 352.09212377 -164.7265625 358.23046875 C-165.11756134 359.35104172 -165.50856018 360.47161469 -165.91140747 361.62614441 C-167.15887737 365.19821579 -168.41492507 368.76719216 -169.671875 372.3359375 C-170.9202181 375.89446329 -172.1667029 379.45362477 -173.41091919 383.01359558 C-174.18396821 385.22395306 -174.95959646 387.4334108 -175.73825073 389.64179993 C-177.92961987 395.89033373 -179.95983441 402.16145442 -181.796875 408.5234375 C-171.43034675 406.8581794 -161.11485871 404.93832473 -150.79467773 403.00952148 C-147.84184917 402.45766207 -144.88872604 401.90740171 -141.93554688 401.35742188 C-140.04685793 401.00529987 -138.15818546 400.65308951 -136.26953125 400.30078125 C-134.95384911 400.05544899 -134.95384911 400.05544899 -133.61158752 399.80516052 C-130.36281435 399.19779097 -127.11689743 398.58907008 -123.87915039 397.92504883 C-121.29105782 397.42587984 -118.80621346 397.31698028 -116.171875 397.2734375 C-115.23085937 397.24765625 -114.28984375 397.221875 -113.3203125 397.1953125 C-110.26416492 397.5927063 -109.65724068 398.11979346 -107.796875 400.5234375 C-107.13671875 402.96362305 -107.13671875 402.96362305 -106.734375 405.97265625 C-106.57839844 407.13587402 -106.42242187 408.2990918 -106.26171875 409.49755859 C-105.32139615 417.43140629 -104.55549013 425.38307281 -103.796875 433.3359375 C-102.63659242 445.42485825 -101.38149788 457.48177868 -99.796875 469.5234375 C-95.91133837 467.34754871 -92.1588763 465.19999301 -88.58984375 462.52734375 C-87.84742432 461.97522217 -87.10500488 461.42310059 -86.34008789 460.85424805 C-85.56270264 460.27070557 -84.78531738 459.68716309 -83.984375 459.0859375 C-82.30006054 457.83255169 -80.61514978 456.57996687 -78.9296875 455.328125 C-78.07793945 454.69487305 -77.22619141 454.06162109 -76.34863281 453.40917969 C-71.63403255 449.92510273 -66.87126826 446.50767102 -62.10327148 443.09716797 C-58.75564416 440.69498543 -55.44218549 438.2731575 -52.21484375 435.7109375 C-51.67335693 435.28530518 -51.13187012 434.85967285 -50.57397461 434.42114258 C-49.16479673 433.30438882 -47.76923044 432.17051642 -46.375 431.03515625 C-43.18468785 429.16447322 -41.4373632 428.92480107 -37.796875 429.5234375 C-34.53197797 432.32046893 -32.44381966 435.45284095 -30.25 439.125 C-29.57727051 440.24350342 -28.90454102 441.36200684 -28.21142578 442.5144043 C-27.85856506 443.10700043 -27.50570435 443.69959656 -27.14215088 444.31015015 C-26.03414748 446.1697991 -24.91840563 448.02458762 -23.80029297 449.87817383 C-22.24641638 452.45501608 -20.69471761 455.03314215 -19.14550781 457.61279297 C-18.75721802 458.25931824 -18.36892822 458.90584351 -17.96887207 459.57196045 C-17.58211304 460.21594788 -17.195354 460.8599353 -16.796875 461.5234375 C-14.19798757 465.85076964 -11.59212669 470.17361232 -8.96813965 474.48577881 C-7.93469287 476.18980244 -6.91112607 477.89980531 -5.88769531 479.60986328 C-4.94941895 481.1506958 -4.94941895 481.1506958 -3.9921875 482.72265625 C-3.44578613 483.62846436 -2.89938477 484.53427246 -2.33642578 485.4675293 C-0.88706876 487.80993925 -0.88706876 487.80993925 2.203125 488.5234375 C2.58944092 487.79568115 2.97575684 487.0679248 3.3737793 486.31811523 C11.649837 470.74720082 19.979008 455.21596219 28.84082031 439.96728516 C29.76177048 438.31518637 30.6250512 436.62981858 31.43261719 434.91943359 C34.366769 428.86132927 34.366769 428.86132927 38.51953125 427.18359375 C43.35010017 427.62925599 46.1592401 429.30743727 50.140625 431.9609375 C50.9035083 432.44812256 51.6663916 432.93530762 52.45239258 433.43725586 C55.05195768 435.10934703 57.62837641 436.81339838 60.203125 438.5234375 C61.17185547 439.1618457 62.14058594 439.80025391 63.13867188 440.45800781 C71.79797676 446.1689331 80.40856641 451.95134904 88.99609375 457.76953125 C90.0466394 458.47807251 90.0466394 458.47807251 91.1184082 459.20092773 C92.38675004 460.05686491 93.65240638 460.91680078 94.91479492 461.78149414 C97.80084855 463.88455696 97.80084855 463.88455696 101.203125 464.5234375 C101.23848862 463.77921036 101.27385223 463.03498322 101.31028748 462.26820374 C101.64561778 455.2218344 101.98368934 448.17560302 102.32476711 441.12950993 C102.49998328 437.50787741 102.67417457 433.8862019 102.84594727 430.2644043 C103.01205106 426.76295848 103.18094673 423.26165706 103.35170174 419.7604351 C103.44717929 417.78822156 103.53983598 415.8158721 103.63243103 413.84352112 C103.80157591 410.40182824 103.99188725 406.96278389 104.203125 403.5234375 C104.28435104 402.14875809 104.28435104 402.14875809 104.36721802 400.74630737 C104.82926718 395.01746031 104.82926718 395.01746031 106.50389099 392.80458069 C111.41049054 389.10523348 121.51317901 391.97047418 127.19213867 392.74316406 C128.43326416 392.9181543 129.67438965 393.09314453 130.953125 393.2734375 C132.24903564 393.45100586 133.54494629 393.62857422 134.88012695 393.81152344 C138.29403029 394.27936241 141.70689212 394.75435868 145.1194458 395.23193359 C149.91864796 395.9033355 154.71854396 396.56975833 159.51855469 397.23535156 C162.06253616 397.58887837 164.60616951 397.94492118 167.14941406 398.30371094 C168.86789551 398.54395996 168.86789551 398.54395996 170.62109375 398.7890625 C171.62938232 398.93118164 172.6376709 399.07330078 173.67651367 399.21972656 C176.27541811 399.58311036 176.27541811 399.58311036 179.203125 399.5234375 C178.61473257 396.21253005 177.81042594 393.24716944 176.5324707 390.13891602 C176.19153885 389.30356827 175.85060699 388.46822052 175.49934387 387.6075592 C175.12959946 386.7148381 174.75985504 385.822117 174.37890625 384.90234375 C173.99502243 383.96599594 173.61113861 383.02964813 173.21562195 382.06492615 C171.98646902 379.07019279 170.75101153 376.07810393 169.515625 373.0859375 C168.70338925 371.10758063 167.89153642 369.12906651 167.08007812 367.15039062 C166.28393065 365.21351023 165.48770766 363.27666087 164.69140625 361.33984375 C164.11098068 359.92319931 164.11098068 359.92319931 163.51882935 358.47793579 C161.82601897 354.36578098 160.11375138 350.27462025 158.24755859 346.23779297 C157.9588237 345.60445541 157.67008881 344.97111786 157.37260437 344.31858826 C156.62629338 342.69780622 155.85943131 341.08652837 155.09057617 339.47631836 C153.90758747 335.54007398 153.80594809 333.41946037 155.203125 329.5234375 C157.94799869 327.5123942 160.98928569 326.57340753 164.203125 325.5234375 C165.19748566 325.18389038 166.19184631 324.84434326 167.21633911 324.49450684 C170.64914511 323.35320123 174.09625429 322.26901663 177.55078125 321.1953125 C178.80322128 320.80144348 180.05566132 320.40757446 181.34605408 320.00177002 C184.64395915 318.96470559 187.94381224 317.93398534 191.24414062 316.90466309 C194.62426872 315.84918951 198.00247598 314.78760442 201.38085938 313.7265625 C207.98643478 311.65293583 214.59409248 309.58601833 221.203125 307.5234375 C221.51956054 304.52377063 221.51956054 304.52377063 219.734375 302.7265625 C219.0640625 302.08203125 218.39375 301.4375 217.703125 300.7734375 C216.59517578 299.70609375 216.59517578 299.70609375 215.46484375 298.6171875 C212.86422795 296.20970897 210.21338918 293.87387112 207.52734375 291.5625 C204.57901899 288.97590248 201.7040254 286.31502262 198.828125 283.6484375 C192.49229344 277.77838208 186.118559 271.95314444 179.62109375 266.26171875 C178.80253906 265.54371094 177.98398437 264.82570313 177.140625 264.0859375 C176.40714844 263.44785156 175.67367188 262.80976563 174.91796875 262.15234375 C172.58464831 259.93595509 172.22933592 258.65187101 171.578125 255.4609375 C172.55242024 249.32287748 176.66365579 246.49724077 181.203125 242.5234375 C181.90695312 241.90210938 182.61078125 241.28078125 183.3359375 240.640625 C184.65338336 239.48850568 185.97624147 238.34254313 187.3046875 237.203125 C189.79271526 235.00178357 192.09506577 232.64255235 194.421875 230.2734375 C196.92208685 227.81708901 199.57993016 225.56034382 202.234375 223.2734375 C204.73752093 221.04841889 207.06334897 218.67641991 209.40625 216.28515625 C211.95643839 213.78486285 214.66985181 211.49232043 217.40625 209.19921875 C219.27986926 207.45186514 220.72824467 205.6128513 222.203125 203.5234375 C212.24663189 200.05201653 202.25138932 196.92519997 192.078125 194.1484375 C183.21264519 191.71517979 174.43509913 189.08832588 165.703125 186.2109375 C164.66397949 185.87336426 163.62483398 185.53579102 162.55419922 185.18798828 C161.60303223 184.86942871 160.65186523 184.55086914 159.671875 184.22265625 C158.83076172 183.94252686 157.98964844 183.66239746 157.12304688 183.3737793 C155.203125 182.5234375 155.203125 182.5234375 154.203125 180.5234375 C153.6661298 173.81192821 155.15883688 169.0241053 157.7109375 162.86328125 C158.25559158 161.50197838 158.25559158 161.50197838 158.81124878 160.11317444 C159.97071971 157.22373148 161.14896338 154.3423929 162.328125 151.4609375 C163.09762006 149.5532445 163.86586044 147.64504491 164.6328125 145.73632812 C167.43054834 138.78608989 170.24859476 131.84431135 173.09667969 124.91455078 C173.65046479 123.55634534 174.20418089 122.19811176 174.7578125 120.83984375 C175.23460449 119.6804126 175.71139648 118.52098145 176.20263672 117.32641602 C177.37120745 114.54856643 177.37120745 114.54856643 177.203125 111.5234375 C174.45260609 111.81071392 171.70279222 112.1032008 168.953125 112.3984375 C168.19515625 112.47707031 167.4371875 112.55570312 166.65625 112.63671875 C161.26150657 113.22114929 155.93354844 114.03838065 150.58544922 114.95263672 C144.59393237 115.96376465 138.58906931 116.88895875 132.58325195 117.81054688 C131.11221591 118.0372381 129.64151388 118.2661067 128.17114258 118.49707031 C126.00937735 118.83645192 123.84664587 119.16893196 121.68359375 119.5 C119.77936646 119.79511475 119.77936646 119.79511475 117.83666992 120.09619141 C108.17041863 121.23278616 108.17041863 121.23278616 105.328125 119.1484375 C103.13441751 115.9797489 102.97628767 113.63382543 102.73828125 109.80786133 C102.62311157 108.01007988 102.62311157 108.01007988 102.50561523 106.17597961 C102.42641846 104.87396103 102.34722168 103.57194244 102.265625 102.23046875 C102.18022481 100.88243259 102.09436209 99.53442565 102.00805664 98.18644714 C101.78124807 94.63013448 101.5591503 91.07354529 101.33850098 87.5168457 C100.98623696 81.84186916 100.62941601 76.16719111 100.26779175 70.49280357 C100.14294822 68.51723219 100.02175679 66.5414311 99.90063477 64.56562805 C99.53857619 58.83962697 99.15401383 53.18406606 98.203125 47.5234375 C91.5556961 51.05563069 85.30964885 55.0105526 79.09375 59.25 C77.69899445 60.19424332 77.69899445 60.19424332 76.27606201 61.15756226 C73.33268603 63.15101226 70.39273759 65.14944302 67.453125 67.1484375 C64.498661 69.15371674 61.54347452 71.15791836 58.58734131 73.16073608 C56.75539006 74.40229895 54.92448972 75.64541427 53.0947876 76.89028931 C40.49736753 85.43896369 40.49736753 85.43896369 34.203125 84.5234375 C31.11824652 81.19709451 28.96523467 77.54094707 26.8046875 73.5703125 C26.33700706 72.71602661 26.33700706 72.71602661 25.85987854 71.84448242 C25.19175268 70.62298826 24.52573646 69.40033819 23.86166382 68.17663574 C22.81572708 66.2506075 21.76302068 64.32843076 20.70825195 62.40722656 C17.84330637 57.1872697 14.98746245 51.96236632 12.13720703 46.734375 C10.2319282 43.24173002 8.31152015 39.75751921 6.390625 36.2734375 C5.81070801 35.20319336 5.23079102 34.13294922 4.63330078 33.03027344 C3.8228833 31.56509277 3.8228833 31.56509277 2.99609375 30.0703125 C2.5271167 29.21276367 2.05813965 28.35521484 1.57495117 27.47167969 C0.2764367 25.21808582 0.2764367 25.21808582 -2.796875 24.5234375 Z " fill="#010100" transform="translate(261.796875,-0.5234375)"/>
<path d="M0 0 C3.02657887 2.69697529 5.94371833 5.49615044 8.859375 8.3125 C9.78492188 9.17488281 10.71046875 10.03726563 11.6640625 10.92578125 C32.4692102 30.81738847 46.62188536 58.36467822 52.859375 86.3125 C53.02308594 87.03953125 53.18679688 87.7665625 53.35546875 88.515625 C61.50423528 126.49830537 53.67157831 168.5342823 32.859375 201.3125 C26.6175134 210.58618429 19.58745408 219.23880021 11.859375 227.3125 C10.76302734 228.50359375 10.76302734 228.50359375 9.64453125 229.71875 C-16.45664753 257.16624582 -55.7211621 273.58351999 -93.3671875 274.56640625 C-95.8748905 274.5969128 -98.38275081 274.61651091 -100.890625 274.625 C-102.67557373 274.63321777 -102.67557373 274.63321777 -104.49658203 274.64160156 C-119.62105898 274.51712027 -119.62105898 274.51712027 -124.140625 270.5625 C-125.48114381 267.54633268 -125.6171484 265.58008906 -125.140625 262.3125 C-123.56518555 260.14282227 -123.56518555 260.14282227 -121.140625 258.3125 C-117.83520508 257.90600586 -117.83520508 257.90600586 -113.91015625 258.02734375 C-113.20677124 258.04138748 -112.50338623 258.05543121 -111.77868652 258.06990051 C-110.27844002 258.09991825 -108.77833558 258.13792234 -107.2784729 258.18322754 C-94.55222313 258.54866233 -82.54735744 258.51379419 -70.140625 255.3125 C-68.88378906 255.02246094 -67.62695312 254.73242188 -66.33203125 254.43359375 C-47.34951979 249.78997017 -29.44955226 241.50737805 -14.140625 229.3125 C-13.62258301 228.90128906 -13.10454102 228.49007813 -12.57080078 228.06640625 C17.62774403 203.90039948 35.08554078 170.24694715 39.60449219 132.01074219 C43.11063516 94.89398728 31.27691536 58.76961325 7.65820312 30.14111328 C-9.50239132 9.60842672 -31.60646574 -5.40040809 -57.140625 -13.6875 C-57.99785156 -13.96851562 -58.85507812 -14.24953125 -59.73828125 -14.5390625 C-95.20249725 -25.13018583 -133.42962739 -20.49712805 -166.140625 -3.6875 C-167.06746094 -3.12289062 -167.99429688 -2.55828125 -168.94921875 -1.9765625 C-171.90515735 -0.23777509 -173.76931281 -0.18538967 -177.140625 -0.6875 C-179.515625 -2.25 -179.515625 -2.25 -181.140625 -4.6875 C-181.640625 -8.1875 -181.640625 -8.1875 -181.140625 -11.6875 C-178.10044624 -15.49524864 -174.19513695 -17.47074296 -169.890625 -19.5625 C-169.18607178 -19.90764648 -168.48151855 -20.25279297 -167.75561523 -20.60839844 C-154.99282562 -26.74089119 -142.0344253 -30.98311065 -128.140625 -33.6875 C-126.98820312 -33.914375 -125.83578125 -34.14125 -124.6484375 -34.375 C-81.09681738 -41.48546859 -33.45282848 -29.05664952 0 0 Z " fill="#040200" transform="translate(355.140625,136.6875)"/>
<path d="M0 0 C3.3125 1.0625 3.3125 1.0625 5.25 2.75 C6.6738395 5.8489448 6.86403827 7.68432812 6.3125 11.0625 C4.71123624 12.7920982 3.03005603 14.44832627 1.3125 16.0625 C-11.34886726 28.22069686 -21.44280369 40.53261946 -29.6875 56.0625 C-30.244375 57.10664063 -30.80125 58.15078125 -31.375 59.2265625 C-47.9668731 91.33183694 -50.2958992 129.50165851 -39.41113281 163.8190918 C-27.32851855 199.31959223 -2.76728788 228.35170758 30.6875 245.32421875 C37.92075623 248.8704688 45.10843795 251.925693 52.89453125 254.078125 C55.79668221 255.25961457 57.32715205 256.65560557 59.3125 259.0625 C60.08126191 263.07714553 59.63318052 264.57630695 57.375 268 C53.57319986 270.56039602 52.1263841 270.18417313 47.77612305 269.5769043 C43.68717862 268.72313302 39.9952372 267.18844495 36.1875 265.5 C34.95036255 264.96101074 34.95036255 264.96101074 33.68823242 264.41113281 C15.41254319 256.32782458 -0.21217752 245.93668782 -14.6875 232.0625 C-16.00621094 230.83853516 -16.00621094 230.83853516 -17.3515625 229.58984375 C-42.00610307 206.01176904 -56.08884771 173.46637824 -60.6875 140.0625 C-60.873125 138.77730469 -61.05875 137.49210938 -61.25 136.16796875 C-64.61355442 108.38119633 -58.98507796 79.05311746 -46.6875 54.0625 C-46.37941406 53.42860352 -46.07132813 52.79470703 -45.75390625 52.14160156 C-37.53330618 35.41899083 -26.0114775 18.33605895 -11.453125 6.5 C-9.67012512 5.0957972 -9.67012512 5.0957972 -8.109375 3.5 C-5.28572511 0.765518 -3.99458907 0.0677049 0 0 Z " fill="#040200" transform="translate(161.6875,134.9375)"/>
<path d="M0 0 C7.10900788 1.92299852 13.67970007 4.43373557 20.3125 7.625 C21.22966797 8.06593994 22.14683594 8.50687988 23.09179688 8.96118164 C35.78264045 15.2026351 46.4832396 23.63614648 57 33 C57.71671875 33.63164062 58.4334375 34.26328125 59.171875 34.9140625 C69.91870195 44.99476382 78.25010154 58.01266825 85 71 C85.60457031 72.13308594 86.20914063 73.26617187 86.83203125 74.43359375 C102.23911353 105.07992516 104.27166608 142.03748932 94.15234375 174.6484375 C88.63110261 190.706827 81.6316326 205.64864743 71 219 C70.59410645 219.51272461 70.18821289 220.02544922 69.77001953 220.55371094 C52.71166137 241.93283501 28.80288359 260.71420792 2 268 C1.34 267.67 0.68 267.34 0 267 C1.08796875 266.38253906 2.1759375 265.76507813 3.296875 265.12890625 C16.36663947 257.63083952 28.01238829 249.38603554 39 239 C39.81082031 238.25363281 40.62164062 237.50726563 41.45703125 236.73828125 C62.66873173 216.52870835 75.02099412 189.33652074 81 161 C81.17732666 160.21963379 81.35465332 159.43926758 81.53735352 158.63525391 C83.22113191 150.57080216 83.35726812 142.5773819 83.3125 134.375 C83.31034485 133.66557251 83.3081897 132.95614502 83.30596924 132.22521973 C83.25386086 121.53788154 82.7733517 111.37494792 80 101 C79.70996094 99.85096191 79.70996094 99.85096191 79.4140625 98.67871094 C73.44236395 75.39092972 62.51243722 55.29267037 47 37 C46.37738281 36.24332031 45.75476563 35.48664063 45.11328125 34.70703125 C39.99847847 28.67924136 34.23548535 23.8339698 28 19 C27.07316406 18.2575 26.14632813 17.515 25.19140625 16.75 C17.27411852 10.56226902 8.83632166 5.74335541 0 1 C0 0.67 0 0.34 0 0 Z " fill="#FBB400" transform="translate(296,122)"/>
<path d="M0 0 C0.66 0.33 1.32 0.66 2 1 C-1.60809503 5.75612527 -6.47436423 6.60804595 -12 8 C-9.72254211 5.51017465 -7.37664762 3.89631003 -4.4375 2.25 C-3.65246094 1.80140625 -2.86742187 1.3528125 -2.05859375 0.890625 C-1.37925781 0.59671875 -0.69992187 0.3028125 0 0 Z " fill="#EAAA02" transform="translate(308,382)"/>
</svg>
